<?xml version="1.0" encoding="utf-8"?>
<!-- Generator: Adobe Illustrator 16.0.0, SVG Export Plug-In . SVG Version: 6.00 Build 0)  -->
<!DOCTYPE svg PUBLIC "-//W3C//DTD SVG 1.1//EN" "http://www.w3.org/Graphics/SVG/1.1/DTD/svg11.dtd">
<svg version="1.1" id="Layer_1" xmlns="http://www.w3.org/2000/svg" xmlns:xlink="http://www.w3.org/1999/xlink" x="0px" y="0px"
	 width="370.113px" height="161.029px" viewBox="0 0 370.113 161.029" enable-background="new 0 0 370.113 161.029"
	 xml:space="preserve">
<path fill-rule="evenodd" clip-rule="evenodd" d="M370.113,26.203c0,1.724,0,3.327,0,4.932c0,40.987,0.002,81.975-0.002,122.963
	c-0.001,6.906-0.026,6.93-7.04,6.93c-118.631,0.003-237.261,0.003-355.892,0c-7.08,0-7.094-0.01-7.095-6.866
	C0.08,111.841,0.125,69.521,0,27.2c-0.01-3.452,1.025-5.299,4.089-6.913C29.036,7.148,55.775,0.998,83.742,0.129
	c44.328-1.377,86.561,8.364,127.445,24.892c21.047,8.509,43.146,12.421,65.654,13.905c31.256,2.062,61.834-1.472,91.331-12.554
	C368.607,26.209,369.129,26.281,370.113,26.203z"/>
</svg>
