<?xml version="1.0" standalone="no"?>
<!DOCTYPE svg PUBLIC "-//W3C//DTD SVG 1.1//EN" "http://www.w3.org/Graphics/SVG/1.1/DTD/svg11.dtd" >
<svg xmlns="http://www.w3.org/2000/svg">
<metadata>Generated by IcoMoon</metadata>
<defs>
<font id="chat-icon" horiz-adv-x="1024">
<font-face units-per-em="1024" ascent="896" descent="-128" />
<missing-glyph horiz-adv-x="1024" />
<glyph unicode="&#x20;" horiz-adv-x="400" d="" />
<glyph unicode="&#xe900;" glyph-name="clock-fill" d="M512 896c-282.328 0-512-229.672-512-512s229.672-512 512-512 512 229.672 512 512-229.672 512-512 512zM755.5 119.172c-8.32-8.32-19.242-12.508-30.164-12.508s-21.852 4.188-30.164 12.508l-213.336 213.328c-8.023 7.977-12.5 18.82-12.5 30.164v277.336c0 23.594 19.109 42.664 42.664 42.664s42.664-19.070 42.664-42.664v-259.672l200.836-200.828c16.68-16.688 16.68-43.648 0-60.328z" />
<glyph unicode="&#xe901;" glyph-name="heart-o" d="M942.766 750.844c-53.008 57.492-125.742 89.156-204.82 89.156-59.109 0-113.242-18.688-160.898-55.539-24.047-18.602-45.836-41.359-65.047-67.922-19.203 26.555-41 49.32-65.055 67.922-47.648 36.852-101.781 55.539-160.891 55.539-79.078 0-151.82-31.664-204.828-89.156-52.375-56.82-81.227-134.445-81.227-218.586 0-86.602 32.273-165.875 101.563-249.484 61.984-74.789 151.070-150.711 254.234-238.625 35.227-30.023 75.156-64.055 116.617-100.305 10.953-9.594 25.008-14.875 39.586-14.875 14.57 0 28.633 5.281 39.57 14.859 41.461 36.258 81.414 70.305 116.656 100.344 103.148 87.898 192.234 163.813 254.219 238.609 69.289 83.602 101.555 162.875 101.555 249.484 0 84.133-28.852 161.758-81.234 218.578z" />
<glyph unicode="&#xe902;" glyph-name="trash-fill" d="M950.856 749.714h-255.998v36.572c0 60.594-49.121 109.714-109.714 109.714h-146.286c-60.594 0-109.714-49.121-109.714-109.714v-36.572h-256.001c-20.199 0-36.572-16.374-36.572-36.572s16.376-36.57 36.572-36.57h39.752l69.962-771.327c1.725-18.887 17.606-33.321 36.572-33.244h585.143c18.966-0.079 34.845 14.355 36.572 33.244l69.96 771.327h39.754c20.199 0 36.572 16.374 36.572 36.572s-16.376 36.57-36.574 36.57zM402.285 786.286c0 20.199 16.374 36.572 36.572 36.572h146.286c20.199 0 36.572-16.374 36.572-36.572v-36.572h-219.428v36.572zM368.494 18.299c-0.062-0.004-0.122-0.009-0.184-0.013h-2.597c-19.226-0.049-35.207 14.799-36.572 33.975l-36.572 511.999c-1.434 20.199 13.776 37.734 33.975 39.167s37.734-13.776 39.167-33.975l36.572-511.999c1.485-20.143-13.644-37.674-33.789-39.154zM548.571 54.858c0-20.199-16.374-36.572-36.572-36.572s-36.572 16.374-36.572 36.572v511.999c0 20.199 16.374 36.572 36.572 36.572s36.572-16.374 36.572-36.572v-511.999zM731.427 564.26l-36.572-511.999c-1.365-19.176-17.346-34.024-36.572-33.975h-2.634c-20.149 1.399-35.349 18.868-33.949 39.017 0.004 0.049 0.006 0.101 0.011 0.15l36.574 512.001c1.434 20.199 18.971 35.409 39.167 33.975 20.199-1.436 35.411-18.971 33.975-39.169z" />
<glyph unicode="&#xe903;" glyph-name="send" d="M373.333 144.555v-197.888c0-13.824 8.875-26.069 22.016-30.421 3.285-1.067 6.656-1.579 9.984-1.579 9.984 0 19.627 4.693 25.771 13.056l115.755 157.525zM1010.56 890.069c-9.813 6.955-22.699 7.893-33.365 2.304l-960-501.333c-11.349-5.931-18.048-18.048-17.109-30.805 0.981-12.8 9.472-23.723 21.547-27.861l266.88-91.221 568.363 485.973-439.808-529.877 447.275-152.875c3.328-1.109 6.827-1.707 10.325-1.707 5.803 0 11.563 1.579 16.64 4.651 8.107 4.949 13.611 13.269 15.019 22.613l117.333 789.333c1.749 11.947-3.285 23.808-13.099 30.805z" />
<glyph unicode="&#xe904;" glyph-name="speaker" d="M595.081 858.502c-11.878 5.666-25.873 4.164-36.113-4.096l-332.049-265.626h-158.652c-37.615 0-68.267-30.652-68.267-68.267v-273.067c0-37.683 30.652-68.267 68.267-68.267h158.652l331.981-265.626c6.212-4.915 13.79-7.441 21.367-7.441 5.052 0 10.103 1.161 14.814 3.413 11.81 5.666 19.319 17.613 19.319 30.72v887.467c0 13.107-7.509 25.054-19.319 30.788zM787.183 625.372c-13.449 13.244-35.021 13.039-48.265-0.273-13.244-13.449-13.107-35.021 0.273-48.333 51.61-50.927 80.009-119.398 80.009-192.785s-28.399-141.858-80.009-192.785c-13.38-13.175-13.517-34.816-0.273-48.265 6.69-6.758 15.497-10.103 24.235-10.103 8.67 0 17.34 3.277 24.030 9.899 64.717 63.693 100.284 149.436 100.284 241.254s-35.567 177.562-100.284 241.391zM883.507 721.559c-13.449 13.312-35.021 13.175-48.333-0.205-13.244-13.38-13.107-35.021 0.205-48.265 77.619-76.937 120.354-179.61 120.354-289.109s-42.735-212.105-120.354-289.041c-13.312-13.312-13.449-34.953-0.205-48.333 6.758-6.69 15.497-10.035 24.235-10.035 8.67 0 17.408 3.277 24.098 9.899 90.658 89.771 140.493 209.647 140.493 337.51s-49.835 247.74-140.493 337.579z" />
<glyph unicode="&#xe905;" glyph-name="menu" d="M433.232 896h-393.848c-21.752 0-39.385-17.632-39.385-39.385v-393.848c0-21.752 17.632-39.385 39.385-39.385h393.848c21.752 0 39.385 17.632 39.385 39.385v393.848c0 21.752-17.632 39.385-39.385 39.385zM984.615 896h-393.848c-21.752 0-39.385-17.632-39.385-39.385v-393.848c0-21.752 17.632-39.385 39.385-39.385h393.848c21.752 0 39.385 17.632 39.385 39.385v393.848c0 21.752-17.632 39.385-39.385 39.385zM433.232 344.613h-393.848c-21.752 0-39.385-17.632-39.385-39.385v-393.848c0-21.752 17.632-39.385 39.385-39.385h393.848c21.752 0 39.385 17.632 39.385 39.385v393.848c0 21.752-17.632 39.385-39.385 39.385zM984.615 344.613h-393.848c-21.752 0-39.385-17.632-39.385-39.385v-393.848c0-21.752 17.632-39.385 39.385-39.385h393.848c21.752 0 39.385 17.632 39.385 39.385v393.848c0 21.752-17.632 39.385-39.385 39.385z" />
<glyph unicode="&#xe906;" glyph-name="down-arrow" d="M1011.488 648.821c-16.682 16.682-43.647 16.682-60.329 0l-439.161-439.159-439.159 439.159c-16.682 16.682-43.647 16.682-60.329 0s-16.682-43.647 0-60.329l469.324-469.324c8.32-8.32 19.242-12.502 30.165-12.502s21.846 4.182 30.165 12.502l469.324 469.324c16.68 16.682 16.68 43.647-0.002 60.329z" />
<glyph unicode="&#xe907;" glyph-name="search" d="M1017.75-61.418l-297.465 297.465c56.42 69.654 90.382 158.206 90.382 254.618 0 223.5-181.834 405.335-405.335 405.335s-405.333-181.834-405.333-405.335 181.834-405.335 405.335-405.335c96.412 0 184.964 33.964 254.618 90.382l297.465-297.465c8.334-8.33 21.838-8.33 30.172 0l30.162 30.164c8.33 8.332 8.33 21.84-0.002 30.17zM405.335 170.665c-176.458 0-320.001 143.542-320.001 320.001s143.542 320.001 320.001 320.001 320.001-143.542 320.001-320.001-143.542-320.001-320.001-320.001z" />
<glyph unicode="&#xe908;" glyph-name="add" d="M512 896c-282.313 0-512-229.687-512-512s229.687-512 512-512 512 229.687 512 512-229.689 512-512 512zM768 320h-192v-192h-127.999v192h-192v127.999h192v192h127.999v-192h192z" />
<glyph unicode="&#xe909;" glyph-name="dott" d="M900.414 507.586c-68.145 0-123.586-55.441-123.586-123.586s55.441-123.586 123.586-123.586 123.586 55.441 123.586 123.586-55.441 123.586-123.586 123.586zM123.586 507.586c-68.145 0-123.586-55.441-123.586-123.586s55.441-123.586 123.586-123.586 123.586 55.441 123.586 123.586-55.441 123.586-123.586 123.586zM512 507.586c-68.145 0-123.586-55.441-123.586-123.586s55.441-123.586 123.586-123.586 123.586 55.441 123.586 123.586-55.441 123.586-123.586 123.586z" />
<glyph unicode="&#xe90a;" glyph-name="down-arrow-o" d="M0 640.001l512.002-512.002 511.998 512.002z" />
<glyph unicode="&#xe90b;" glyph-name="link" d="M324.914 27.184c-46.854-46.888-122.866-46.888-169.722 0-46.15 46.118-46.886 120.498-2.176 167.514l252.93 252.93c-78.224 20.916-164.962 1.664-227.496-57.808l-112.462-112.462c-89.422-94.030-87.95-242.79 4.352-335.028 93.71-93.774 245.734-93.774 339.444 0l103.692 103.692c62.85 62.808 83.57 151.81 62.172 231.894zM953.67 825.66c-92.238 92.302-240.998 93.774-335.028 4.352l-112.462-112.462c-59.47-62.536-78.722-149.274-57.808-227.496l252.93 252.93c47.016 44.71 121.394 43.974 167.514-2.176 46.888-46.856 46.886-122.866 0-169.722l-250.734-250.734c80.084-21.398 169.086-0.68 231.894 62.172l103.692 103.692c93.776 93.71 93.776 245.734 0.002 339.444zM329.548 201.544c23.428-23.444 61.434-23.444 84.86 0l280.046 280.046c23.444 23.428 23.444 61.434 0 84.86-23.060 23.076-60.25 23.444-83.756 1.088l-282.24-282.24c-22.354-23.504-21.986-60.694 1.090-83.754z" />
<glyph unicode="&#xe90c;" glyph-name="user-group" d="M617.94 666.971c47.347-29.686 80.548-79.921 86.592-138.233 19.309-9.022 40.74-14.211 63.462-14.211 82.95 0 150.182 67.232 150.182 150.169 0 82.95-67.232 150.182-150.182 150.182-82.158-0.026-148.801-66.056-150.054-147.907zM519.553 359.477c82.95 0 150.182 67.244 150.182 150.182s-67.244 150.169-150.182 150.169c-82.937 0-150.207-67.244-150.207-150.182s67.27-150.169 150.207-150.169zM583.257 349.24h-127.435c-106.029 0-192.289-86.273-192.289-192.302v-155.843l0.396-2.441 10.735-3.361c101.186-31.616 189.094-42.159 261.45-42.159 141.326 0 223.24 40.293 228.288 42.862l10.032 5.073h1.073v155.868c0.038 106.029-86.221 192.302-192.251 192.302zM831.724 504.278h-126.451c-1.367-50.593-22.964-96.151-57.123-128.917 94.247-28.025 163.204-115.422 163.204-218.653v-48.024c124.853 4.575 196.8 39.961 201.541 42.338l10.032 5.086h1.073v155.894c0 106.017-86.26 192.276-192.276 192.276zM256.032 514.502c29.379 0 56.714 8.575 79.87 23.182 7.361 48.012 33.098 89.966 69.864 118.54 0.153 2.811 0.422 5.597 0.422 8.434 0 82.95-67.244 150.182-150.156 150.182-82.963 0-150.182-67.232-150.182-150.182 0-82.912 67.219-150.156 150.182-150.156zM390.904 375.361c-33.993 32.6-55.513 77.915-57.085 128.201-4.69 0.345-9.329 0.716-14.108 0.716h-127.422c-106.029 0-192.289-86.26-192.289-192.276v-155.868l0.396-2.402 10.735-3.386c81.174-25.341 153.619-37.021 216.544-40.702v47.066c0.026 103.231 68.957 190.602 163.229 218.653z" />
<glyph unicode="&#xe90d;" glyph-name="mute" d="M768 384c0 100.408-58.027 187.165-142.221 228.979v-125.725l139.661-139.661c1.707 11.947 2.56 24.176 2.56 36.408zM910.221 384c0-53.475-11.661-103.821-30.72-150.187l86.187-86.187c36.979 70.827 58.312 151.040 58.312 236.373 0 243.485-170.381 447.147-398.221 498.915v-117.475c164.408-48.925 284.443-201.101 284.443-381.44zM512 839.112l-118.899-118.899 118.899-118.899zM72.533 896l-72.533-72.533 268.8-268.8h-268.8v-341.333h227.555l284.445-284.445v382.579l242.061-242.061c-38.115-29.299-81.067-52.907-128.285-67.128v-117.477c78.221 17.92 149.619 53.76 209.635 102.968l116.056-115.768 72.533 72.533-951.467 951.467z" />
<glyph unicode="&#xe90e;" glyph-name="bubble-o" d="M961.401 165.596c31.877 65.653 49.77 139.353 49.77 217.237 0 275.041-222.966 498.005-498.005 498.005-275.041 0-498.005-222.964-498.005-498.005 0-275.038 222.964-498.005 498.005-498.005 116.255 0 223.202 39.84 307.944 106.606l103.765-35.46c76.145-2.78 71.144 71.141 71.144 71.141l-34.618 138.48z" />
<glyph unicode="&#xe90f;" glyph-name="bubble" d="M508.86 849.349c-257.005 0-465.349-208.343-465.349-465.349 0-4.304 0.068-8.591 0.184-12.866 0.037-1.388 0.107-2.766 0.156-4.147 0.105-2.895 0.217-5.787 0.373-8.67 0.089-1.609 0.201-3.214 0.306-4.819 0.173-2.657 0.355-5.307 0.571-7.949 0.135-1.658 0.289-3.312 0.441-4.966 0.243-2.605 0.502-5.204 0.784-7.795 0.18-1.626 0.362-3.249 0.557-4.868 0.32-2.661 0.667-5.314 1.031-7.961 0.208-1.509 0.411-3.021 0.632-4.525 0.425-2.871 0.886-5.733 1.365-8.593 0.21-1.25 0.404-2.508 0.623-3.755 0.634-3.629 1.318-7.24 2.039-10.839 0.091-0.457 0.17-0.921 0.264-1.379 0.856-4.22 1.77-8.416 2.741-12.594 0.037-0.154 0.077-0.308 0.112-0.462 0.91-3.895 1.871-7.77 2.878-11.628 0.238-0.91 0.492-1.81 0.735-2.717 0.833-3.116 1.689-6.221 2.584-9.309 0.315-1.087 0.644-2.169 0.968-3.254 0.872-2.925 1.766-5.838 2.694-8.738 0.352-1.101 0.709-2.197 1.068-3.294 0.956-2.918 1.943-5.822 2.955-8.712 0.355-1.017 0.709-2.032 1.071-3.044 1.096-3.063 2.23-6.109 3.389-9.144 0.303-0.798 0.602-1.6 0.91-2.393 1.383-3.562 2.811-7.105 4.278-10.625 0.1-0.24 0.194-0.483 0.294-0.723 3.289-7.844 6.785-15.582 10.485-23.2 0.002-0.007 0.005-0.014 0.009-0.021l-32.348-129.4c0 0-4.674-69.075 66.478-66.476l96.958 33.139c0.007-0.007 0.014-0.012 0.023-0.019 1.12-0.882 2.26-1.74 3.389-2.615 1.602-1.236 3.203-2.477 4.819-3.695 1.299-0.975 2.61-1.934 3.919-2.897 1.477-1.087 2.958-2.174 4.446-3.245 1.355-0.973 2.717-1.934 4.082-2.892 1.481-1.040 2.969-2.071 4.467-3.095 1.369-0.938 2.741-1.875 4.124-2.799 1.546-1.033 3.105-2.053 4.663-3.067 1.344-0.877 2.682-1.759 4.035-2.622 1.838-1.171 3.695-2.319 5.552-3.464 1.677-1.036 3.357-2.067 5.048-3.081 2.232-1.339 4.469-2.673 6.725-3.975 1.318-0.763 2.65-1.502 3.977-2.251 1.703-0.961 3.406-1.922 5.122-2.864 1.416-0.777 2.839-1.537 4.264-2.298 1.661-0.889 3.326-1.77 5.001-2.638 1.444-0.749 2.89-1.493 4.341-2.228 1.707-0.863 3.424-1.712 5.146-2.557 1.416-0.695 2.829-1.393 4.252-2.071 1.906-0.912 3.825-1.798 5.745-2.682 1.25-0.576 2.491-1.166 3.746-1.731 3.070-1.383 6.156-2.734 9.26-4.049 1.131-0.481 2.274-0.935 3.41-1.409 2.111-0.877 4.222-1.749 6.349-2.594 1.379-0.548 2.769-1.078 4.154-1.614 1.913-0.737 3.83-1.472 5.754-2.188 1.439-0.534 2.883-1.059 4.329-1.579 1.917-0.69 3.842-1.367 5.771-2.034 1.432-0.492 2.864-0.987 4.301-1.467 2.053-0.686 4.119-1.348 6.184-2.006 1.309-0.418 2.612-0.842 3.926-1.248 2.797-0.863 5.605-1.696 8.423-2.505 0.758-0.219 1.512-0.443 2.272-0.658 3.191-0.903 6.398-1.768 9.62-2.603 1.232-0.32 2.47-0.618 3.704-0.924 2.242-0.562 4.486-1.117 6.739-1.644 1.397-0.329 2.799-0.641 4.201-0.956 2.137-0.481 4.276-0.947 6.422-1.4 1.421-0.299 2.843-0.592 4.269-0.877 2.207-0.441 4.42-0.861 6.639-1.271 1.346-0.25 2.687-0.504 4.035-0.739 2.584-0.455 5.178-0.877 7.774-1.29 0.977-0.154 1.95-0.324 2.93-0.474 3.562-0.539 7.135-1.040 10.723-1.5 0.914-0.119 1.833-0.215 2.75-0.327 2.708-0.331 5.421-0.646 8.143-0.931 1.32-0.138 2.645-0.254 3.968-0.383 2.354-0.226 4.709-0.439 7.072-0.627 1.409-0.114 2.822-0.219 4.238-0.32 2.33-0.166 4.663-0.313 7-0.443 1.393-0.077 2.783-0.156 4.178-0.224 2.515-0.119 5.034-0.21 7.558-0.287 1.199-0.040 2.396-0.086 3.597-0.117 3.716-0.086 7.441-0.142 11.178-0.142 257.005 0 465.349 208.343 465.349 465.349s-208.336 465.344-465.342 465.344zM289.249 481.604h268.414v-97.604h-268.414v97.604zM752.876 261.992h-463.627v97.607h463.627v-97.607z" />
<glyph unicode="&#xe910;" glyph-name="close" d="M680.959 383.968l316.788 316.788c35.002 35.002 35.002 91.748 0 126.695l-42.232 42.232c-35.013 35.013-91.759 35.013-126.706 0l-316.777-316.777-316.788 316.842c-35.002 35.002-91.748 35.002-126.695 0l-42.297-42.232c-35.002-35.013-35.002-91.759 0-126.706l316.842-316.842-316.777-316.777c-35.013-35.013-35.013-91.759 0-126.706l42.232-42.232c35.002-35.002 91.748-35.002 126.695 0l316.788 316.788 316.777-316.788c35.013-35.002 91.759-35.002 126.706 0l42.232 42.232c35.002 35.013 35.002 91.759 0 126.706z" />
<glyph unicode="&#xe911;" glyph-name="settings" d="M999.906 500.594l-78.703 17.109c-6.844 20.953-15.32 41.391-25.328 61.078l43.57 67.773c7.781 12.109 6.070 28.008-4.102 38.18l-122.609 122.609c-10.172 10.172-26.070 11.883-38.18 4.102l-67.773-43.57c-19.688 10.008-40.125 18.484-61.078 25.328l-17.109 78.703c-3.055 14.063-15.508 24.094-29.898 24.094h-173.391c-14.391 0-26.844-10.031-29.898-24.094l-17.109-78.703c-20.953-6.844-41.391-15.32-61.078-25.328l-67.773 43.57c-12.109 7.781-28.008 6.070-38.18-4.102l-122.609-122.609c-10.172-10.172-11.883-26.070-4.102-38.18l43.57-67.773c-10.008-19.688-18.484-40.125-25.328-61.078l-78.703-17.109c-14.063-3.063-24.094-15.508-24.094-29.898v-173.391c0-14.391 10.031-26.836 24.094-29.898l78.703-17.109c6.844-20.953 15.32-41.391 25.328-61.078l-43.57-67.773c-7.781-12.109-6.070-28.008 4.102-38.18l122.609-122.609c10.172-10.172 26.070-11.883 38.18-4.102l67.773 43.57c19.688-10.008 40.125-18.484 61.078-25.328l17.109-78.703c3.055-14.063 15.508-24.094 29.898-24.094h173.391c14.391 0 26.844 10.031 29.898 24.094l17.109 78.703c20.953 6.844 41.391 15.32 61.078 25.328l67.773-43.57c12.109-7.781 28.008-6.078 38.18 4.102l122.609 122.609c10.172 10.172 11.883 26.070 4.102 38.18l-43.57 67.773c10.008 19.688 18.484 40.125 25.328 61.078l78.703 17.109c14.063 3.063 24.094 15.508 24.094 29.898v173.391c0 14.391-10.031 26.836-24.094 29.898zM695.586 384c0-101.227-82.359-183.586-183.586-183.586s-183.586 82.359-183.586 183.586 82.359 183.586 183.586 183.586 183.586-82.359 183.586-183.586z" />
<glyph unicode="&#xe912;" glyph-name="smile" d="M512 896c-281.6 0-512-230.4-512-512s230.4-512 512-512 512 230.4 512 512-230.4 512-512 512zM691.2 588.8c40.96 0 76.8-35.84 76.8-76.8s-35.84-76.8-76.8-76.8-76.8 35.84-76.8 76.8 35.84 76.8 76.8 76.8zM332.8 588.8c40.96 0 76.8-35.84 76.8-76.8s-35.84-76.8-76.8-76.8-76.8 35.84-76.8 76.8 35.84 76.8 76.8 76.8zM512 76.8c-133.12 0-245.76 87.040-286.72 204.8h573.44c-40.96-117.76-153.6-204.8-286.72-204.8z" />
<glyph unicode="&#xe913;" glyph-name="bubble-line" d="M525.786 854.594c-257.005 0-465.349-208.343-465.349-465.349 0-4.301 0.068-8.589 0.184-12.862 0.037-1.39 0.107-2.771 0.156-4.15 0.105-2.892 0.217-5.785 0.373-8.67 0.089-1.607 0.201-3.212 0.306-4.819 0.173-2.657 0.355-5.297 0.571-7.94 0.135-1.658 0.289-3.322 0.441-4.975 0.243-2.601 0.502-5.199 0.784-7.795 0.18-1.616 0.362-3.249 0.557-4.866 0.32-2.661 0.667-5.307 1.031-7.963 0.208-1.505 0.411-3.021 0.632-4.521 0.425-2.869 0.886-5.731 1.365-8.598 0.21-1.253 0.404-2.51 0.623-3.748 0.634-3.636 1.318-7.243 2.039-10.846 0.091-0.45 0.17-0.917 0.264-1.372 0.856-4.224 1.77-8.421 2.741-12.598 0.037-0.149 0.077-0.306 0.112-0.462 0.91-3.893 1.871-7.765 2.878-11.621 0.238-0.917 0.492-1.815 0.735-2.72 0.833-3.119 1.689-6.219 2.584-9.307 0.315-1.089 0.644-2.169 0.968-3.256 0.872-2.923 1.766-5.838 2.694-8.733 0.352-1.106 0.709-2.202 1.068-3.294 0.956-2.92 1.943-5.822 2.955-8.714 0.355-1.017 0.709-2.032 1.071-3.044 1.096-3.063 2.23-6.109 3.389-9.144 0.303-0.8 0.602-1.602 0.91-2.391 1.383-3.56 2.811-7.107 4.278-10.625 0.1-0.243 0.194-0.483 0.294-0.728 3.289-7.842 6.785-15.584 10.485-23.195 0.002-0.014 0.005-0.019 0.009-0.028l-32.348-129.402c0 0-4.674-69.075 66.478-66.478l96.958 33.139c0.007-0.005 0.014-0.009 0.023-0.019 1.12-0.879 2.26-1.74 3.389-2.615 1.602-1.234 3.203-2.482 4.819-3.695 1.299-0.975 2.61-1.931 3.919-2.897 1.477-1.085 2.958-2.174 4.446-3.245 1.355-0.97 2.717-1.931 4.082-2.892 1.481-1.038 2.969-2.069 4.467-3.093 1.369-0.938 2.741-1.878 4.124-2.801 1.546-1.029 3.107-2.050 4.665-3.063 1.344-0.875 2.682-1.763 4.035-2.619 1.836-1.171 3.695-2.319 5.549-3.466 1.677-1.033 3.357-2.064 5.048-3.079 2.232-1.339 4.469-2.673 6.725-3.972 1.318-0.765 2.652-1.507 3.977-2.256 1.7-0.956 3.408-1.917 5.122-2.867 1.414-0.774 2.841-1.535 4.264-2.295 1.661-0.889 3.326-1.768 5.001-2.638 1.444-0.751 2.89-1.491 4.341-2.228 1.707-0.861 3.427-1.707 5.146-2.557 1.414-0.693 2.829-1.395 4.252-2.069 1.903-0.921 3.825-1.803 5.745-2.682 1.248-0.578 2.491-1.166 3.744-1.731 3.070-1.386 6.156-2.734 9.263-4.049 1.129-0.478 2.274-0.933 3.41-1.411 2.111-0.879 4.222-1.749 6.349-2.596 1.381-0.541 2.771-1.071 4.154-1.607 1.913-0.737 3.832-1.472 5.754-2.188 1.439-0.534 2.883-1.061 4.327-1.581 1.917-0.693 3.842-1.367 5.773-2.032 1.43-0.497 2.867-0.994 4.301-1.467 2.055-0.693 4.119-1.348 6.184-2.008 1.311-0.415 2.612-0.837 3.926-1.243 2.797-0.865 5.605-1.7 8.423-2.505 0.756-0.224 1.512-0.446 2.274-0.66 3.189-0.903 6.396-1.768 9.617-2.601 1.232-0.32 2.47-0.62 3.704-0.921 2.242-0.56 4.488-1.12 6.739-1.644 1.4-0.334 2.801-0.641 4.203-0.956 2.137-0.483 4.276-0.952 6.422-1.4 1.421-0.306 2.843-0.597 4.269-0.884 2.204-0.439 4.423-0.856 6.639-1.271 1.346-0.243 2.687-0.502 4.035-0.732 2.582-0.455 5.178-0.875 7.772-1.295 0.98-0.149 1.952-0.324 2.932-0.474 3.56-0.534 7.138-1.033 10.723-1.5 0.917-0.119 1.833-0.215 2.752-0.329 2.706-0.334 5.421-0.646 8.141-0.928 1.32-0.138 2.647-0.25 3.968-0.383 2.356-0.229 4.712-0.439 7.072-0.63 1.409-0.114 2.822-0.219 4.238-0.32 2.328-0.163 4.66-0.315 6.998-0.441 1.395-0.077 2.783-0.159 4.178-0.224 2.515-0.124 5.034-0.21 7.558-0.287 1.199-0.042 2.396-0.086 3.597-0.119 3.713-0.086 7.439-0.147 11.175-0.147 257.008 0 465.353 208.346 465.353 465.351 0 257.003-208.341 465.337-465.344 465.337zM520.36-36.39c-3.417 0.049-6.82 0.154-10.217 0.287-1.099 0.047-2.19 0.105-3.287 0.159-2.307 0.105-4.614 0.219-6.909 0.369-1.276 0.077-2.547 0.173-3.818 0.264-2.137 0.147-4.269 0.32-6.396 0.502-1.295 0.114-2.587 0.229-3.872 0.355-2.16 0.205-4.311 0.434-6.461 0.674-1.208 0.138-2.419 0.259-3.625 0.406-2.484 0.296-4.964 0.62-7.436 0.966-0.837 0.114-1.679 0.219-2.512 0.338-3.273 0.474-6.536 0.984-9.785 1.526-0.893 0.149-1.782 0.32-2.673 0.474-2.37 0.415-4.733 0.837-7.093 1.29-1.227 0.233-2.452 0.488-3.676 0.73-2.022 0.415-4.045 0.826-6.055 1.257-1.302 0.282-2.598 0.569-3.893 0.865-1.957 0.446-3.907 0.903-5.855 1.372-1.278 0.31-2.557 0.616-3.83 0.933-2.055 0.515-4.098 1.057-6.142 1.6-1.124 0.296-2.253 0.588-3.373 0.898-2.937 0.807-5.857 1.644-8.763 2.515-0.693 0.21-1.379 0.42-2.069 0.637-2.566 0.774-5.122 1.581-7.667 2.41-1.199 0.392-2.382 0.793-3.574 1.19-1.88 0.637-3.76 1.271-5.629 1.927-1.309 0.46-2.61 0.933-3.914 1.404-1.754 0.632-3.504 1.285-5.248 1.941-1.316 0.497-2.629 0.998-3.937 1.507-1.749 0.683-3.494 1.381-5.232 2.083-1.262 0.511-2.524 1.017-3.776 1.53-1.934 0.807-3.853 1.63-5.773 2.466-1.031 0.45-2.071 0.884-3.098 1.339-2.822 1.248-5.626 2.524-8.414 3.832-1.138 0.536-2.267 1.094-3.401 1.64-1.742 0.833-3.487 1.668-5.218 2.533-1.29 0.641-2.575 1.299-3.858 1.955-1.563 0.802-3.121 1.6-4.67 2.41-1.316 0.693-2.629 1.395-3.94 2.099-1.519 0.816-3.030 1.644-4.537 2.482-1.29 0.716-2.582 1.43-3.867 2.165-1.553 0.889-3.102 1.791-4.642 2.687-1.204 0.707-2.412 1.404-3.606 2.123-2.043 1.215-4.070 2.47-6.093 3.727-1.535 0.952-3.058 1.917-4.574 2.888-1.682 1.075-3.366 2.151-5.029 3.249-1.225 0.807-2.438 1.635-3.653 2.452-1.411 0.952-2.822 1.908-4.224 2.869-1.253 0.865-2.491 1.745-3.732 2.619-1.355 0.961-2.701 1.922-4.040 2.892-1.234 0.903-2.47 1.798-3.695 2.706-1.346 0.998-2.682 2.018-4.021 3.030-1.183 0.903-2.37 1.796-3.543 2.706-1.463 1.134-2.909 2.295-4.357 3.445-1.022 0.821-2.050 1.621-3.063 2.442-0.009 0.009-0.016 0.014-0.021 0.019l-89.158-28.94c-65.118-1.367-59.868 61.75-59.868 61.75l31.42 117.902c-0.005 0.009-0.007 0.014-0.009 0.023-3.277 7.019-6.366 14.145-9.263 21.366-0.089 0.224-0.17 0.443-0.259 0.667-1.292 3.238-2.547 6.503-3.762 9.778-0.271 0.728-0.534 1.465-0.8 2.2-1.017 2.79-2.011 5.591-2.969 8.409-0.315 0.933-0.627 1.866-0.935 2.799-0.884 2.661-1.747 5.328-2.58 8.015-0.313 1.005-0.625 2.011-0.931 3.028-0.807 2.661-1.584 5.342-2.34 8.029-0.282 0.998-0.567 1.992-0.84 2.99-0.777 2.839-1.514 5.687-2.232 8.549-0.21 0.833-0.429 1.661-0.632 2.498-0.868 3.543-1.693 7.098-2.47 10.674-0.030 0.142-0.063 0.282-0.096 0.425-0.828 3.832-1.605 7.69-2.328 11.558-0.079 0.42-0.147 0.847-0.224 1.262-0.609 3.303-1.183 6.615-1.71 9.951-0.184 1.134-0.341 2.291-0.515 3.441-0.397 2.624-0.779 5.248-1.127 7.882-0.182 1.376-0.345 2.762-0.515 4.14-0.294 2.433-0.576 4.861-0.83 7.299-0.156 1.481-0.299 2.974-0.441 4.46-0.222 2.379-0.42 4.761-0.606 7.14-0.117 1.516-0.233 3.039-0.334 4.556-0.161 2.419-0.292 4.842-0.411 7.275-0.072 1.467-0.154 2.939-0.212 4.411-0.1 2.643-0.163 5.29-0.217 7.935-0.026 1.262-0.070 2.524-0.084 3.795-0.047 3.914-0.049 7.837 0.012 11.773 3.634 235.077 197.149 422.697 432.224 419.061 235.079-3.634 422.693-197.137 419.056-432.219-3.629-235.077-197.147-422.693-432.226-419.059zM295.686 498.935v-97.604h268.412v97.604h-268.412zM527.075 430.913h-194.366v38.443h194.366v-38.443zM293.97 377.163v-97.602h463.629v97.602h-463.629zM717.567 309.143h-383.566v38.441h383.566v-38.441z" />
</font>
</defs>
</svg>
